<svg width="25" height="24" viewBox="0 0 25 24" fill="none" xmlns="http://www.w3.org/2000/svg">
<path d="M16.8125 11.25H13.25V7.6875C13.25 7.58437 13.1656 7.5 13.0625 7.5H11.9375C11.8344 7.5 11.75 7.58437 11.75 7.6875V11.25H8.1875C8.08437 11.25 8 11.3344 8 11.4375V12.5625C8 12.6656 8.08437 12.75 8.1875 12.75H11.75V16.3125C11.75 16.4156 11.8344 16.5 11.9375 16.5H13.0625C13.1656 16.5 13.25 16.4156 13.25 16.3125V12.75H16.8125C16.9156 12.75 17 12.6656 17 12.5625V11.4375C17 11.3344 16.9156 11.25 16.8125 11.25Z" fill="#F5F5F5"/>
<path d="M12.5 1.5C6.70156 1.5 2 6.20156 2 12C2 17.7984 6.70156 22.5 12.5 22.5C18.2984 22.5 23 17.7984 23 12C23 6.20156 18.2984 1.5 12.5 1.5ZM12.5 20.7188C7.68594 20.7188 3.78125 16.8141 3.78125 12C3.78125 7.18594 7.68594 3.28125 12.5 3.28125C17.3141 3.28125 21.2188 7.18594 21.2188 12C21.2188 16.8141 17.3141 20.7188 12.5 20.7188Z" fill="#F5F5F5"/>
</svg>
