<svg width="17" height="15" viewBox="0 0 17 15" fill="none" xmlns="http://www.w3.org/2000/svg">
<path d="M8.5 11.25C7.14 11.25 5.78 9.9375 5.1 9.375C1.7 6.75 0.68 5.8125 0 5.25V13.125C0 14.1604 0.761281 15 1.7 15H15.3C16.2387 15 17 14.1604 17 13.125V5.25C16.32 5.8125 15.3 6.75 11.9 9.375C11.22 9.9375 9.86 11.25 8.5 11.25ZM15.3 0H1.7C0.761281 0 0 0.839649 0 1.875V2.8125C1.36 3.9375 1.19 3.9375 6.12 7.875C6.63 8.25 7.65 9.375 8.5 9.375C9.35 9.375 10.37 8.25 10.88 8.0625C15.81 4.125 15.64 4.125 17 3V1.875C17 0.839649 16.2387 0 15.3 0Z" fill="#3D3C3B" fill-opacity="0.44"/>
</svg>
