<svg width="19" height="15" viewBox="0 0 19 15" fill="none" xmlns="http://www.w3.org/2000/svg">
<path d="M18.3326 6.81969C17.5886 5.43847 16.7032 4.31201 15.6764 3.4403L14.5995 4.38922C15.4776 5.12869 16.2425 6.09607 16.904 7.30086C15.143 10.5124 12.6434 12.038 9.22741 12.038C8.20203 12.038 7.25758 11.8988 6.39405 11.6206L5.22722 12.6488C6.42657 13.1368 7.75996 13.3808 9.22741 13.3808C13.2953 13.3808 16.3304 11.5139 18.3326 7.78017C18.4131 7.63001 18.4548 7.466 18.4548 7.29993C18.4548 7.13386 18.4131 6.96985 18.3326 6.81969ZM16.9871 0.839742L16.0849 0.0437584C16.0691 0.0298863 16.0505 0.0188815 16.0299 0.0113731C16.0094 0.00386472 15.9873 0 15.9651 0C15.9428 0 15.9208 0.00386472 15.9002 0.0113731C15.8797 0.0188815 15.861 0.0298863 15.8453 0.0437584L13.5305 2.08258C12.2542 1.50816 10.8199 1.22095 9.22741 1.22095C5.15949 1.22095 2.12443 3.08782 0.122218 6.82155C0.0417388 6.97172 0 7.13573 0 7.30179C0 7.46786 0.0417388 7.63187 0.122218 7.78203C0.922114 9.26657 1.88512 10.4565 3.01124 11.3518L0.77156 13.3248C0.739831 13.3528 0.722007 13.3907 0.722007 13.4303C0.722007 13.4698 0.739831 13.5078 0.77156 13.5358L1.67509 14.3319C1.70685 14.3599 1.7499 14.3756 1.79478 14.3756C1.83967 14.3756 1.88272 14.3599 1.91447 14.3319L16.9871 1.05086C17.0029 1.037 17.0154 1.02055 17.0239 1.00244C17.0324 0.984323 17.0368 0.964908 17.0368 0.945301C17.0368 0.925694 17.0324 0.906279 17.0239 0.888166C17.0154 0.870054 17.0029 0.853599 16.9871 0.839742ZM1.55086 7.30086C3.3139 4.08932 5.81349 2.56375 9.22741 2.56375C10.3817 2.56375 11.4313 2.73832 12.3835 3.09323L10.8956 4.40432C10.191 4.07303 9.38415 3.95008 8.59416 4.0536C7.80417 4.15713 7.07286 4.48165 6.50811 4.97929C5.94336 5.47693 5.57508 6.12134 5.45759 6.81746C5.34011 7.51358 5.47964 8.22454 5.85561 8.84546L4.09002 10.4012C3.11283 9.64125 2.27047 8.61159 1.55086 7.30086ZM6.77226 7.30086C6.77263 6.97199 6.86104 6.64784 7.03029 6.35474C7.19954 6.06163 7.44487 5.80784 7.74634 5.61398C8.04782 5.42012 8.39694 5.29166 8.76535 5.23903C9.13375 5.1864 9.51105 5.21109 9.86659 5.31109L6.88465 7.93869C6.80991 7.7325 6.772 7.51732 6.77226 7.30086Z" fill="black" fill-opacity="0.44"/>
</svg>
