<svg width="132" height="42" viewBox="0 0 132 42" fill="none" xmlns="http://www.w3.org/2000/svg">
<rect width="42" height="42" rx="4" fill="#1F8A70"/>
<path d="M29.8491 10.92V31.24C29.8491 32.4133 29.2625 33 28.0891 33H25.4011C24.8678 33 24.4625 32.8827 24.1851 32.648C23.9078 32.392 23.6518 32.0187 23.4171 31.528L17.3051 19.944C17.0491 19.4533 16.7931 18.9093 16.5371 18.312C16.3025 17.7147 16.0998 17.1387 15.9291 16.584H15.5771C15.6411 17.16 15.6945 17.7467 15.7371 18.344C15.7798 18.92 15.8011 19.496 15.8011 20.072V33H11.1611V12.68C11.1611 11.5067 11.7585 10.92 12.9531 10.92H15.6091C16.1211 10.92 16.5051 11.048 16.7611 11.304C17.0385 11.5387 17.3051 11.9013 17.5611 12.392L23.4811 23.624C23.7371 24.1147 24.0038 24.6587 24.2811 25.256C24.5585 25.8533 24.8251 26.472 25.0811 27.112H25.4651C25.4011 26.472 25.3478 25.8533 25.3051 25.256C25.2838 24.6373 25.2731 24.0293 25.2731 23.432L25.2411 10.92H29.8491Z" fill="white"/>
<path d="M73.0523 11.42V31.74C73.0523 32.9133 72.4656 33.5 71.2923 33.5H68.6042C68.0709 33.5 67.6656 33.3827 67.3883 33.148C67.1109 32.892 66.8549 32.5187 66.6203 32.028L60.5083 20.444C60.2523 19.9533 59.9963 19.4093 59.7403 18.812C59.5056 18.2147 59.3029 17.6387 59.1323 17.084H58.7803C58.8443 17.66 58.8976 18.2467 58.9403 18.844C58.9829 19.42 59.0043 19.996 59.0043 20.572V33.5H54.3643V13.18C54.3643 12.0067 54.9616 11.42 56.1562 11.42H58.8123C59.3243 11.42 59.7083 11.548 59.9643 11.804C60.2416 12.0387 60.5083 12.4013 60.7643 12.892L66.6843 24.124C66.9403 24.6147 67.2069 25.1587 67.4843 25.756C67.7616 26.3533 68.0283 26.972 68.2843 27.612H68.6683C68.6043 26.972 68.5509 26.3533 68.5083 25.756C68.4869 25.1373 68.4763 24.5293 68.4763 23.932L68.4443 11.42H73.0523ZM81.81 17.692V28.092C81.81 28.7533 81.9487 29.2227 82.226 29.5C82.5247 29.7773 82.994 29.916 83.634 29.916C84.2953 29.916 84.946 29.7987 85.586 29.564C86.2473 29.308 87.058 28.9133 88.018 28.38L88.402 30.972C87.25 31.9747 86.1193 32.7213 85.01 33.212C83.9007 33.7027 82.7593 33.948 81.586 33.948C78.578 33.948 77.074 32.476 77.074 29.532V17.692H81.81ZM92.274 17.692V33.5H88.53L87.986 30.396L87.538 29.948V17.692H92.274ZM102.315 13.308V28.444C102.315 29.02 102.443 29.436 102.699 29.692C102.976 29.9267 103.424 30.044 104.043 30.044H106.091L106.603 33.244C106.219 33.372 105.749 33.4787 105.195 33.564C104.64 33.6707 104.085 33.7453 103.531 33.788C102.976 33.852 102.507 33.884 102.123 33.884C100.693 33.884 99.5734 33.5 98.7628 32.732C97.9734 31.964 97.5788 30.8867 97.5788 29.5L97.5468 13.308H102.315ZM106.731 17.692V20.796H94.7948V17.852L97.8668 17.692H106.731ZM112.976 17.692L113.552 20.828L114 21.244V33.5H109.264V17.692H112.976ZM120.688 17.276L120.24 21.66H118.928C118.181 21.66 117.402 21.7667 116.592 21.98C115.781 22.1933 114.757 22.5133 113.52 22.94L113.2 20.284C114.309 19.3027 115.429 18.556 116.56 18.044C117.69 17.532 118.789 17.276 119.856 17.276H120.688ZM127.752 17.692V33.5H123.048V17.692H127.752ZM126.44 10.716C127.379 10.716 127.848 11.196 127.848 12.156V13.852C127.848 14.812 127.379 15.292 126.44 15.292H124.392C123.453 15.292 122.984 14.812 122.984 13.852V12.156C122.984 11.196 123.453 10.716 124.392 10.716H126.44Z" fill="#1F8A70"/>
</svg>
