<svg width="150" height="42" viewBox="0 0 150 42" fill="none" xmlns="http://www.w3.org/2000/svg">
<rect width="40.3846" height="42" rx="4" fill="white"/>
<path d="M29.8491 10.92V31.24C29.8491 32.4133 29.2625 33 28.0891 33H25.4011C24.8678 33 24.4625 32.8827 24.1851 32.648C23.9078 32.392 23.6518 32.0187 23.4171 31.528L17.3051 19.944C17.0491 19.4533 16.7931 18.9093 16.5371 18.312C16.3025 17.7147 16.0998 17.1387 15.9291 16.584H15.5771C15.6411 17.16 15.6945 17.7467 15.7371 18.344C15.7798 18.92 15.8011 19.496 15.8011 20.072V33H11.1611V12.68C11.1611 11.5067 11.7585 10.92 12.9531 10.92H15.6091C16.1211 10.92 16.5051 11.048 16.7611 11.304C17.0385 11.5387 17.3051 11.9013 17.5611 12.392L23.4811 23.624C23.7371 24.1147 24.0038 24.6587 24.2811 25.256C24.5585 25.8533 24.8251 26.472 25.0811 27.112H25.4651C25.4011 26.472 25.3478 25.8533 25.3051 25.256C25.2838 24.6373 25.2731 24.0293 25.2731 23.432L25.2411 10.92H29.8491Z" fill="#1F8A70"/>
<path d="M70.0332 11.92V32.24C70.0332 33.4133 69.4465 34 68.2732 34H65.5852C65.0518 34 64.6465 33.8827 64.3692 33.648C64.0918 33.392 63.8358 33.0187 63.6012 32.528L57.4892 20.944C57.2332 20.4533 56.9772 19.9093 56.7212 19.312C56.4865 18.7147 56.2838 18.1387 56.1132 17.584H55.7612C55.8252 18.16 55.8785 18.7467 55.9212 19.344C55.9638 19.92 55.9852 20.496 55.9852 21.072V34H51.3452V13.68C51.3452 12.5067 51.9425 11.92 53.1372 11.92H55.7932C56.3052 11.92 56.6892 12.048 56.9452 12.304C57.2225 12.5387 57.4892 12.9013 57.7452 13.392L63.6652 24.624C63.9212 25.1147 64.1878 25.6587 64.4652 26.256C64.7425 26.8533 65.0092 27.472 65.2652 28.112H65.6492C65.5852 27.472 65.5318 26.8533 65.4892 26.256C65.4678 25.6373 65.4572 25.0293 65.4572 24.432L65.4252 11.92H70.0332ZM78.7909 18.192V28.592C78.7909 29.2533 78.9296 29.7227 79.2069 30C79.5056 30.2773 79.9749 30.416 80.6149 30.416C81.2763 30.416 81.9269 30.2987 82.5669 30.064C83.2283 29.808 84.0389 29.4133 84.9989 28.88L85.3829 31.472C84.2309 32.4747 83.1003 33.2213 81.9909 33.712C80.8816 34.2027 79.7403 34.448 78.5669 34.448C75.5589 34.448 74.0549 32.976 74.0549 30.032V18.192H78.7909ZM89.2549 18.192V34H85.5109L84.9669 30.896L84.5189 30.448V18.192H89.2549ZM99.2957 13.808V28.944C99.2957 29.52 99.4237 29.936 99.6797 30.192C99.957 30.4267 100.405 30.544 101.024 30.544H103.072L103.584 33.744C103.2 33.872 102.73 33.9787 102.176 34.064C101.621 34.1707 101.066 34.2453 100.512 34.288C99.957 34.352 99.4877 34.384 99.1037 34.384C97.6743 34.384 96.5543 34 95.7437 33.232C94.9543 32.464 94.5597 31.3867 94.5597 30L94.5277 13.808H99.2957ZM103.712 18.192V21.296H91.7757V18.352L94.8477 18.192H103.712ZM109.957 18.192L110.533 21.328L110.981 21.744V34H106.245V18.192H109.957ZM117.669 17.776L117.221 22.16H115.909C115.162 22.16 114.383 22.2667 113.573 22.48C112.762 22.6933 111.738 23.0133 110.501 23.44L110.181 20.784C111.29 19.8027 112.41 19.056 113.541 18.544C114.671 18.032 115.77 17.776 116.837 17.776H117.669ZM124.733 18.192V34H120.029V18.192H124.733ZM123.421 11.216C124.36 11.216 124.829 11.696 124.829 12.656V14.352C124.829 15.312 124.36 15.792 123.421 15.792H121.373C120.434 15.792 119.965 15.312 119.965 14.352V12.656C119.965 11.696 120.434 11.216 121.373 11.216H123.421Z" fill="white"/>
</svg>
