<svg width="20" height="20" viewBox="0 0 20 20" fill="none" xmlns="http://www.w3.org/2000/svg">
<path d="M9.75 0.451904C4.374 0.451904 0 4.8259 0 10.2019C0 15.5779 4.374 19.9519 9.75 19.9519C15.126 19.9519 19.5 15.5779 19.5 10.2019C19.5 4.8259 15.126 0.451904 9.75 0.451904ZM9.75 1.9519C14.3153 1.9519 18 5.63665 18 10.2019C18 14.7672 14.3153 18.4519 9.75 18.4519C5.18475 18.4519 1.5 14.7672 1.5 10.2019C1.5 5.63665 5.18475 1.9519 9.75 1.9519ZM6.915 6.2869L5.835 7.3669L8.673 10.2019L5.8365 13.0369L6.9165 14.1169L9.75 11.2797L12.585 14.1147L13.665 13.0369L10.8278 10.2019L13.6627 7.3669L12.585 6.2869L9.75 9.1249L6.915 6.2884V6.2869Z" fill="#828282"/>
</svg>
