<svg width="17" height="17" viewBox="0 0 17 17" fill="none" xmlns="http://www.w3.org/2000/svg">
<path fill-rule="evenodd" clip-rule="evenodd" d="M8.00195 0.137939C5.79195 0.137939 4.00195 1.98966 4.00195 4.27587C4.00195 6.56208 5.79195 8.4138 8.00195 8.4138C10.212 8.4138 12.002 6.56208 12.002 4.27587C12.002 1.98966 10.212 0.137939 8.00195 0.137939ZM10.002 4.27587C10.002 3.13794 9.10195 2.2069 8.00195 2.2069C6.90195 2.2069 6.00195 3.13794 6.00195 4.27587C6.00195 5.4138 6.90195 6.34484 8.00195 6.34484C9.10195 6.34484 10.002 5.4138 10.002 4.27587ZM14.002 14.6207C13.802 13.8862 10.702 12.5517 8.00195 12.5517C5.31195 12.5517 2.23195 13.8759 2.00195 14.6207H14.002ZM0.00195312 14.6207C0.00195312 11.869 5.33195 10.4828 8.00195 10.4828C10.672 10.4828 16.002 11.869 16.002 14.6207V16.6897H0.00195312V14.6207Z" fill="black" fill-opacity="0.44"/>
</svg>
